<svg width="16" height="16" viewBox="0 0 16 16" fill="none" xmlns="http://www.w3.org/2000/svg">
<g id="copy-01" clip-path="url(#clip0_772_2838)">
<g id="elements">
<path id="Vector" d="M6 10C6 8.11438 6 7.17157 6.58579 6.58579C7.17157 6 8.11438 6 10 6L10.6667 6C12.5523 6 13.4951 6 14.0809 6.58579C14.6667 7.17157 14.6667 8.11438 14.6667 10V10.6667C14.6667 12.5523 14.6667 13.4951 14.0809 14.0809C13.4951 14.6667 12.5523 14.6667 10.6667 14.6667H10C8.11438 14.6667 7.17157 14.6667 6.58579 14.0809C6 13.4951 6 12.5523 6 10.6667L6 10Z" stroke="#0078FB" stroke-linecap="round" stroke-linejoin="round"/>
<path id="Vector_2" d="M11.3332 6.00004C11.3316 4.02865 11.3018 3.00751 10.7279 2.30833C10.6171 2.1733 10.4933 2.04949 10.3583 1.93868C9.62074 1.33337 8.52491 1.33337 6.33325 1.33337C4.1416 1.33337 3.04577 1.33337 2.3082 1.93868C2.17318 2.04949 2.04937 2.1733 1.93856 2.30833C1.33325 3.04589 1.33325 4.14172 1.33325 6.33337C1.33325 8.52503 1.33325 9.62085 1.93856 10.3584C2.04937 10.4934 2.17318 10.6173 2.3082 10.7281C3.00739 11.3019 4.02852 11.3317 5.99992 11.3333" stroke="#0078FB" stroke-linecap="round" stroke-linejoin="round"/>
</g>
</g>
<defs>
<clipPath id="clip0_772_2838">
<rect width="16" height="16" fill="white"/>
</clipPath>
</defs>
</svg>
