<svg width="16" height="19" viewBox="0 0 16 19" fill="none" xmlns="http://www.w3.org/2000/svg">
<path id="path98" d="M4.70897 14.6264C2.49436 12.8287 0.658519 10.4174 0.0956689 7.62119C-0.0376627 6.95864 -0.082489 6.21561 0.305397 5.66233C0.805174 4.94956 1.83292 4.83365 2.68128 5.02922C5.14896 5.5978 6.6783 7.99802 7.94126 10.1929C7.84279 8.60585 7.74582 6.99656 8.06551 5.43898C8.3852 3.88141 9.17661 2.3546 10.5106 1.48884C11.8446 0.623079 13.7695 0.585163 14.938 1.66379C16.3448 2.9621 16.1965 5.26986 15.4034 7.01236C14.4593 9.08613 12.8143 10.7599 11.7055 12.7506C11.2341 13.597 10.8792 14.5349 10.7355 15.4946C10.6087 16.3427 10.9637 17.4569 10.5991 18.1537C8.52891 17.4635 6.39737 15.9984 4.70897 14.6264Z" fill="#616161"/>
</svg>
