<svg width="24" height="25" viewBox="0 0 24 25" fill="none" xmlns="http://www.w3.org/2000/svg">
<g id="pen-tool-02">
<g id="elements">
<path id="Vector" d="M16.4215 7.5C16.6828 6.31796 17.5116 4.3044 16.5398 3.23202C15.8765 2.5 14.6288 2.5 12.1335 2.5L11.8665 2.5C9.37118 2.5 8.12353 2.5 7.46018 3.23202C6.4884 4.30441 7.31722 6.31796 7.57854 7.5" stroke="#E5611E" stroke-width="1.5" stroke-linecap="round" stroke-linejoin="round"/>
<path id="Vector_2" d="M18.0068 15.1526L13.7868 20.8584C12.9774 21.9528 12.5726 22.5 12 22.5C11.4274 22.5 11.0227 21.9528 10.2132 20.8584L5.99325 15.1526C5.31656 14.2377 4.97821 13.7802 5.00109 13.2927C5.02396 12.8052 5.47593 12.2946 6.37986 11.2732C7.25108 10.2888 7.57854 9.26948 7.57854 7.50045L16.4215 7.5C16.4215 9.26902 16.7493 10.2886 17.6203 11.2731C18.5242 12.2947 18.9761 12.8054 18.9989 13.2929C19.0217 13.7803 18.6834 14.2377 18.0068 15.1526Z" stroke="#E5611E" stroke-width="1.5" stroke-linecap="round" stroke-linejoin="round"/>
<path id="Vector_3" d="M13.5 14.5C13.0587 14.818 12.5464 15 12 15M12 15C11.4536 15 10.9413 14.818 10.5 14.5M12 15L12 22.5" stroke="#E5611E" stroke-width="1.5" stroke-linecap="round"/>
</g>
</g>
</svg>
