<svg width="24" height="25" viewBox="0 0 24 25" fill="none" xmlns="http://www.w3.org/2000/svg">
<g id="castle-02">
<g id="elements">
<path id="Vector" d="M7.28393 10.2098L6.86048 9.38716C6.69171 9.05928 6.60732 8.89533 6.48092 8.77672C6.377 8.67921 6.25325 8.60443 6.1178 8.55731C5.95306 8.5 5.76611 8.5 5.39223 8.5C4.84263 8.5 4.56783 8.5 4.35334 8.60516C4.17791 8.69116 4.0315 8.82515 3.93171 8.991C3.8097 9.19377 3.79013 9.46317 3.75097 10.0019L3.07621 19.2863C2.9668 20.7917 2.9121 21.5444 3.36478 22.0222C3.81747 22.5 4.58528 22.5 6.1209 22.5H17.8791C19.4147 22.5 20.1825 22.5 20.6352 22.0222C21.0879 21.5444 21.0332 20.7917 20.9238 19.2863L20.249 10.0019C20.2099 9.46317 20.1903 9.19377 20.0683 8.991C19.9685 8.82515 19.8221 8.69116 19.6467 8.60516C19.4322 8.5 19.1574 8.5 18.6078 8.5C18.2339 8.5 18.0469 8.5 17.8822 8.55731C17.7468 8.60443 17.623 8.67921 17.5191 8.77672C17.3927 8.89533 17.3083 9.05927 17.1395 9.38717L16.7161 10.2098C16.5958 10.4434 16.5357 10.5602 16.4547 10.6527C16.317 10.8097 16.1331 10.9209 15.9284 10.9707C15.8079 11 15.6747 11 15.4083 11C15.1106 11 14.9618 11 14.8302 10.9647C14.6063 10.9046 14.4101 10.7711 14.2741 10.5864C14.1941 10.4778 14.1416 10.3409 14.0367 10.0671L13.9153 9.75C13.6923 9.16803 13.5809 8.87704 13.3462 8.70255C13.3233 8.68551 13.2997 8.66942 13.2754 8.65434C13.0265 8.5 12.7102 8.5 12.0774 8.5H11.9226C11.2898 8.5 10.9735 8.5 10.7247 8.65434C10.7003 8.66942 10.6767 8.68551 10.6538 8.70255C10.4191 8.87704 10.3077 9.16803 10.0847 9.75L9.96327 10.0671C9.85838 10.3409 9.80594 10.4778 9.72593 10.5864C9.58986 10.7711 9.39365 10.9046 9.16983 10.9647C9.03821 11 8.88937 11 8.59168 11C8.32529 11 8.19209 11 8.07162 10.9707C7.86689 10.9209 7.68296 10.8097 7.5453 10.6527C7.4643 10.5602 7.40418 10.4434 7.28393 10.2098Z" stroke="#E5611E" stroke-width="1.5" stroke-linecap="round" stroke-linejoin="round"/>
<path id="Vector_2" d="M12 5.5C13.491 6.18354 16 5 16 2.5C14.3578 3.12289 13.5105 3.11424 12 2.5V5.5ZM12 5.5V8.5" stroke="#E5611E" stroke-width="1.5" stroke-linecap="round" stroke-linejoin="round"/>
<path id="Vector_3" d="M9 22.5L9.60777 19.4611C9.75132 18.7434 9.8231 18.3845 10.0155 18.1192C10.4935 17.4602 11.2612 17.5 12 17.5C12.7388 17.5 13.5065 17.4602 13.9845 18.1192C14.1769 18.3845 14.2487 18.7434 14.3922 19.4611L15 22.5" stroke="#E5611E" stroke-width="1.5" stroke-linecap="round" stroke-linejoin="round"/>
<path id="Vector_4" d="M11 14.5H13" stroke="#E5611E" stroke-width="1.5" stroke-linecap="round" stroke-linejoin="round"/>
</g>
</g>
</svg>
